<?xml version="1.0" standalone="no"?>
<!DOCTYPE svg PUBLIC "-//W3C//DTD SVG 20010904//EN"
 "http://www.w3.org/TR/2001/REC-SVG-20010904/DTD/svg10.dtd">
<svg version="1.0" xmlns="http://www.w3.org/2000/svg"
 width="1024.000000pt" height="1024.000000pt" viewBox="0 0 1024.000000 1024.000000"
 preserveAspectRatio="xMidYMid meet">

<g transform="translate(0.000000,1024.000000) scale(0.100000,-0.100000)"
fill="#000000" stroke="none">
<path d="M5067 8543 l-45 -108 -132 -9 c-72 -4 -128 -12 -123 -15 4 -4 50 -43
101 -85 50 -43 92 -83 92 -88 0 -5 -11 -55 -25 -110 -14 -55 -25 -104 -23
-109 2 -4 48 19 102 51 55 33 103 60 108 60 5 0 54 -27 107 -60 54 -33 100
-60 104 -60 3 0 -8 48 -24 108 -16 59 -29 114 -29 123 0 8 42 51 93 95 71 61
87 80 72 82 -11 1 -67 6 -125 10 l-105 7 -45 107 c-25 59 -48 108 -51 108 -3
0 -26 -48 -52 -107z"/>
<path d="M4385 8317 c-17 -40 -37 -73 -45 -74 -8 -1 -46 -5 -85 -9 l-70 -6 65
-60 64 -60 -21 -81 c-12 -45 -21 -83 -19 -84 1 -1 31 15 66 37 36 22 72 39 81
40 9 0 44 -18 77 -40 72 -46 75 -42 42 61 l-19 64 65 59 c76 69 74 74 -38 75
l-66 1 -27 70 c-15 38 -30 72 -33 74 -4 2 -20 -28 -37 -67z"/>
<path d="M5811 8370 c-6 -14 -19 -47 -30 -75 l-19 -50 -78 -8 c-43 -4 -81 -10
-84 -13 -3 -3 23 -31 58 -62 l62 -57 -20 -79 c-11 -44 -19 -81 -17 -82 2 -2
32 15 68 36 35 22 71 40 79 40 8 0 42 -18 75 -40 33 -22 61 -36 63 -32 1 4 -7
41 -17 82 l-20 75 66 61 c64 58 66 61 42 67 -13 4 -52 7 -87 7 l-63 0 -19 48
c-11 26 -26 61 -34 77 l-14 30 -11 -25z"/>
<path d="M2860 7036 l0 -665 2250 0 2250 -1 0 665 0 665 -2250 0 -2250 0 0
-664z m570 -6 l0 -480 -105 0 -105 0 0 480 0 480 105 0 105 0 0 -480z m675
466 c158 -42 232 -137 223 -288 -6 -114 -47 -178 -149 -237 l-48 -27 60 -90
c34 -49 94 -137 135 -196 l74 -108 -123 0 -123 0 -123 185 c-120 179 -125 185
-157 185 l-34 0 0 -185 0 -186 -107 3 -108 3 -3 478 -2 477 217 0 c150 0 234
-4 268 -14z m1035 -86 l0 -100 -205 0 -205 0 0 -95 0 -95 181 -2 180 -3 1 -90
1 -90 -181 -3 -182 -2 -2 -188 -3 -187 -102 -3 -103 -3 0 481 0 480 310 0 310
0 0 -100z m679 -158 c57 -141 141 -347 186 -457 45 -110 85 -210 89 -223 l8
-23 -113 3 -113 3 -32 85 -32 85 -193 0 -192 0 -35 -87 -35 -88 -110 0 c-100
0 -109 2 -104 18 8 24 181 454 289 720 l91 222 96 0 96 0 104 -258z m584 206
c24 -29 87 -109 139 -178 52 -69 127 -167 166 -219 l72 -93 0 271 0 271 105 0
105 0 0 -480 0 -480 -77 0 -78 0 -170 228 c-93 125 -185 248 -204 274 -19 26
-36 46 -38 44 -3 -2 -4 -126 -3 -275 l1 -271 -106 0 -105 0 -2 448 c0 246 -2
458 -3 472 0 14 1 28 3 33 2 4 36 7 77 7 l73 0 45 -52z"/>
<path d="M3840 7214 l0 -106 109 4 c99 3 112 5 135 27 49 46 46 122 -7 159
-29 19 -46 22 -135 22 l-102 0 0 -106z"/>
<path d="M5616 7230 c-3 -8 -30 -82 -61 -164 -31 -82 -54 -150 -52 -153 2 -2
58 -2 123 -1 l120 3 -62 165 c-34 91 -65 158 -68 150z"/>
<path d="M2117 7163 c-4 -3 7 -25 24 -49 l30 -44 294 0 295 0 0 45 0 45 -297
1 c-164 0 -307 2 -319 4 -12 3 -24 2 -27 -2z"/>
<path d="M7778 7163 l-308 -3 0 -45 0 -45 303 0 302 0 25 43 c35 58 34 57 8
55 -12 -2 -161 -4 -330 -5z"/>
<path d="M2161 6948 c-9 -9 -24 -30 -34 -47 l-18 -31 325 0 326 0 0 45 0 44
-292 3 c-263 3 -293 1 -307 -14z"/>
<path d="M7470 6915 l0 -45 336 0 c265 0 334 3 328 13 -4 6 -19 27 -32 45
l-24 32 -304 0 -304 0 0 -45z"/>
<path d="M2059 5543 c-1 -406 -2 -755 -3 -776 l-1 -38 3057 -2 3058 -2 0 778
0 777 -3055 0 -3055 0 -1 -737z m730 155 c41 -139 77 -257 81 -261 4 -5 24 45
44 110 21 65 51 162 69 216 l31 98 85 -3 84 -3 32 -95 c17 -52 47 -148 66
-212 19 -65 37 -118 40 -118 3 0 34 109 69 243 35 133 67 250 72 260 7 14 23
17 108 17 84 0 100 -3 100 -16 0 -8 -33 -126 -74 -262 -40 -136 -95 -323 -122
-417 -26 -93 -52 -176 -57 -182 -6 -9 -38 -13 -93 -13 l-83 0 -11 43 c-22 83
-131 461 -133 464 -2 1 -34 -112 -72 -252 l-68 -255 -88 0 -88 0 -27 88 c-37
124 -133 431 -189 607 -70 220 -76 195 47 195 l103 0 74 -252z m1549 160 l3
-88 -186 0 -185 0 0 -85 c0 -47 3 -84 8 -84 4 1 80 1 170 0 l163 -1 -3 -87 -3
-87 -170 -2 -170 -2 -3 -91 -3 -91 201 0 200 0 0 -59 c0 -32 -3 -73 -6 -90
l-6 -31 -289 0 -289 0 0 445 0 445 283 -2 282 -3 3 -87z m574 81 c61 -13 135
-48 160 -76 10 -10 27 -41 39 -68 38 -85 13 -182 -61 -233 -22 -15 -39 -29
-40 -32 0 -4 15 -12 34 -18 46 -17 102 -81 116 -134 15 -53 6 -119 -21 -173
-30 -59 -53 -80 -122 -111 l-62 -29 -230 0 -230 0 0 425 c0 234 1 433 3 443 3
15 20 17 182 17 99 0 203 -5 232 -11z m859 -17 c173 -49 270 -164 292 -347 12
-92 -5 -196 -43 -279 -35 -72 -112 -151 -183 -185 -86 -42 -164 -52 -367 -49
l-175 3 -3 430 c-1 237 0 436 3 444 9 22 386 9 476 -17z m990 24 c2 -2 3 -43
1 -90 l-3 -86 -185 0 -184 0 0 -85 0 -85 175 0 176 0 -3 -87 -3 -88 -172 -3
-173 -2 0 -90 0 -90 195 0 195 0 0 -90 0 -90 -292 2 -293 3 -3 443 -2 442 283
0 c156 0 286 -2 288 -4z m329 -136 c108 -303 170 -473 173 -477 3 -2 186 518
212 605 6 19 215 17 215 -2 0 -12 -184 -505 -297 -796 l-29 -75 -99 0 -99 0
-34 80 c-53 126 -302 780 -302 793 0 9 28 12 106 10 l106 -3 48 -135z"/>
<path d="M4692 5688 l3 -83 94 0 c89 0 94 1 117 28 28 32 30 56 9 96 -19 38
-30 41 -136 41 l-90 0 3 -82z"/>
<path d="M4690 5335 l0 -97 109 4 c100 3 112 5 135 27 35 33 36 89 2 128 -23
27 -28 28 -135 31 l-111 4 0 -97z"/>
<path d="M5497 5763 c-4 -3 -7 -123 -7 -266 l0 -260 98 5 c189 10 261 74 270
244 8 150 -45 238 -163 269 -60 15 -186 21 -198 8z"/>
<path d="M1123 5888 c2 -7 94 -133 203 -280 316 -423 298 -396 286 -422 -6
-13 -45 -72 -86 -132 -42 -60 -147 -210 -233 -334 -85 -124 -164 -234 -174
-246 -11 -11 -19 -24 -19 -28 0 -5 294 -7 653 -5 358 2 663 -1 676 -5 14 -5
90 -44 169 -87 80 -44 148 -79 151 -79 3 0 6 87 6 193 l0 192 -397 3 -398 2 0
620 0 620 -421 0 c-333 0 -420 -3 -416 -12z"/>
<path d="M8268 5283 l-3 -618 -392 -3 -393 -2 0 -200 c0 -110 2 -200 4 -200 3
0 78 41 168 91 l163 91 658 -1 c361 -1 657 0 657 3 0 3 -35 56 -79 118 -304
439 -399 577 -416 605 l-19 33 54 77 c29 43 85 121 124 173 38 52 127 175 198
273 l127 177 -424 0 -425 0 -2 -617z"/>
<path d="M2860 3966 l0 -684 98 -61 c132 -83 241 -150 547 -333 143 -85 305
-182 360 -215 55 -34 240 -144 410 -245 171 -102 428 -255 573 -341 262 -157
262 -157 292 -142 16 8 199 118 407 243 208 126 401 242 428 259 28 16 264
157 525 313 261 156 566 339 678 408 l202 124 0 679 0 679 -2260 0 -2260 0 0
-684z m2323 500 l54 -113 69 -7 c38 -4 96 -13 128 -19 l59 -12 -35 -30 c-19
-17 -63 -52 -97 -80 -53 -43 -61 -53 -55 -75 16 -67 52 -245 50 -247 -2 -2
-51 26 -110 62 -58 36 -111 65 -117 65 -6 0 -60 -27 -121 -61 -60 -33 -112
-58 -115 -55 -3 3 6 62 21 131 l26 126 -58 53 c-31 29 -72 66 -90 81 -17 15
-30 30 -27 35 3 4 59 14 125 21 67 7 124 18 129 23 4 6 28 57 51 114 24 56 47
102 51 102 5 0 33 -51 62 -114z m-768 -80 c38 -81 36 -80 148 -91 37 -4 67
-10 67 -12 0 -5 -29 -32 -104 -95 l-29 -25 17 -87 c10 -49 16 -90 14 -91 -2
-2 -37 15 -77 39 l-73 44 -68 -39 c-69 -40 -96 -48 -87 -26 2 6 10 45 18 86
l13 75 -68 62 -69 61 59 7 c126 14 144 18 144 31 0 16 50 135 57 135 2 0 20
-33 38 -74z m1490 7 c15 -38 31 -71 35 -76 3 -4 46 -13 95 -19 l88 -12 -67
-61 -67 -60 19 -87 c11 -49 15 -88 10 -88 -5 0 -41 18 -79 40 l-69 41 -68 -41
c-38 -22 -73 -40 -78 -40 -7 0 -4 32 8 86 l18 85 -56 52 c-31 29 -61 54 -65
55 -23 9 -4 21 44 26 133 17 120 9 157 92 18 41 36 74 40 74 4 0 20 -30 35
-67z m-1975 -193 l0 -60 -420 0 -420 0 0 53 c0 30 3 57 7 60 3 4 192 7 420 7
l413 0 0 -60z m3235 0 l0 -55 -437 -3 -438 -2 0 53 c0 30 3 57 7 60 3 4 200 6
437 5 l431 -3 0 -55z m-3869 -599 c8 -15 9 -32 4 -47 -7 -16 -5 -24 6 -28 20
-8 18 -50 -4 -69 -21 -19 -91 -32 -127 -23 -24 6 -25 9 -25 79 0 116 2 118 74
115 52 -3 62 -6 72 -27z m94 -46 l0 -75 30 0 30 0 0 75 c0 73 1 75 25 75 25 0
25 -1 25 -80 0 -75 -2 -81 -26 -97 -34 -22 -88 -22 -112 1 -25 22 -33 61 -25
125 5 45 8 51 29 51 23 0 24 -3 24 -75z m190 -20 c0 -95 0 -95 -25 -95 -25 0
-25 0 -25 95 0 95 0 95 25 95 25 0 25 0 25 -95z m90 20 l0 -75 41 0 c36 0 40
-2 37 -22 -3 -21 -9 -23 -61 -24 -36 -1 -60 2 -62 10 -2 6 -5 50 -8 99 l-3 87
28 0 28 0 0 -75z m261 46 c42 -42 41 -99 -2 -135 -26 -22 -40 -26 -95 -26
l-64 0 0 95 0 95 66 0 c59 0 68 -3 95 -29z m287 12 c-2 -12 -14 -19 -35 -21
l-32 -3 -3 -77 c-3 -69 -5 -77 -23 -77 -18 0 -21 8 -25 75 -5 73 -6 75 -32 78
-20 2 -28 9 -28 23 0 17 8 19 91 19 81 0 90 -2 87 -17z m62 -18 c0 -34 1 -35
40 -35 39 0 40 1 40 36 0 31 3 35 23 32 21 -3 22 -7 22 -98 0 -91 -1 -95 -22
-98 -19 -3 -23 3 -29 37 -6 39 -9 41 -40 41 -32 0 -34 -2 -34 -35 0 -31 -3
-35 -25 -35 -25 0 -25 0 -25 95 0 95 0 95 25 95 22 0 25 -4 25 -35z m290 15
c0 -17 -7 -20 -40 -20 -33 0 -40 -3 -40 -20 0 -17 7 -20 41 -20 33 0 40 -3 37
-17 -2 -13 -14 -19 -41 -21 -42 -4 -54 -32 -13 -32 38 0 56 -10 56 -32 0 -17
-6 -19 -62 -16 l-63 3 -3 98 -3 97 66 0 c58 0 65 -2 65 -20z m220 0 c0 -16 -7
-20 -35 -20 -28 0 -35 -4 -35 -20 0 -15 7 -20 28 -20 34 0 43 -7 35 -26 -3 -8
-18 -14 -34 -14 -26 0 -29 -3 -29 -34 0 -28 -4 -34 -25 -38 -13 -3 -27 -3 -30
0 -3 3 -5 47 -5 99 l0 93 65 0 c58 0 65 -2 65 -20z m82 -52 c3 -67 5 -73 25
-76 29 -4 43 29 43 99 0 44 2 49 23 49 22 0 22 -2 16 -75 -7 -92 -24 -115 -82
-115 -64 0 -77 19 -77 112 0 76 1 78 25 78 23 0 24 -3 27 -72z m296 55 c-2
-11 -14 -19 -31 -21 -27 -3 -27 -4 -27 -78 0 -72 -1 -74 -25 -74 -23 0 -24 3
-27 73 -3 72 -3 72 -30 70 -23 -1 -28 2 -28 23 0 24 2 24 86 24 76 0 85 -2 82
-17z m62 -27 c0 -24 3 -58 6 -75 6 -27 11 -32 33 -29 25 3 26 6 29 76 3 69 4
72 27 72 24 0 25 -2 25 -68 0 -101 -42 -146 -116 -122 -40 13 -54 48 -54 131
0 56 1 59 25 59 23 0 25 -4 25 -44z m280 24 c24 -24 26 -53 4 -74 -14 -15 -14
-19 5 -52 26 -44 26 -44 -3 -44 -17 0 -31 11 -46 35 -12 19 -26 35 -31 35 -5
0 -9 -16 -9 -35 0 -31 -3 -35 -25 -35 -25 0 -25 0 -25 95 l0 95 55 0 c42 0 60
-5 75 -20z m180 1 c0 -16 -8 -20 -42 -23 -57 -4 -60 -32 -5 -36 23 -2 37 -8
37 -17 0 -9 -14 -15 -37 -17 -30 -2 -38 -7 -38 -23 0 -17 6 -19 43 -17 37 3
42 1 42 -17 0 -19 -6 -21 -67 -21 l-68 0 3 95 3 95 65 0 c57 0 64 -2 64 -19z
m210 4 c59 -30 68 -98 21 -146 -26 -25 -37 -29 -85 -29 l-56 0 0 95 0 95 45 0
c26 0 59 -7 75 -15z m112 -7 c2 -13 4 -54 4 -93 -1 -65 -3 -70 -23 -73 -22 -3
-23 -1 -23 92 0 87 2 96 19 96 11 0 20 -9 23 -22z m196 -10 c3 -27 -11 -38
-23 -18 -9 14 -58 12 -79 -3 -13 -9 -17 -23 -14 -52 2 -33 7 -41 27 -43 29 -5
52 15 28 24 -35 13 -18 34 27 34 44 0 66 -12 46 -25 -5 -3 -10 -22 -10 -41 l0
-34 -59 0 c-72 0 -108 25 -117 81 -5 31 -1 41 26 73 31 35 35 37 89 34 53 -3
56 -5 59 -30z m82 -63 l0 -95 -25 0 -26 0 2 95 c1 93 2 95 25 95 24 0 24 -2
24 -95z m180 75 c0 -15 -7 -20 -25 -20 -23 0 -24 -3 -27 -77 -3 -72 -5 -78
-25 -81 -21 -3 -22 1 -25 75 -3 77 -3 78 -30 81 -16 1 -28 4 -28 7 0 3 0 12 0
20 0 12 16 15 80 15 73 0 80 -2 80 -20z m145 -65 c19 -44 34 -86 35 -92 0 -22
-51 -15 -57 7 -4 14 -14 20 -35 20 -21 0 -31 -6 -35 -20 -4 -14 -14 -20 -34
-20 l-28 0 24 63 c51 134 48 128 73 125 19 -2 30 -18 57 -83z m105 10 l0 -75
40 0 c36 0 40 -2 40 -25 0 -25 -1 -26 -62 -23 l-63 3 -3 65 c-4 91 4 130 28
130 18 0 20 -7 20 -75z m160 0 l0 -75 41 0 c36 0 40 -2 37 -22 -2 -19 -10 -24
-47 -26 -86 -6 -86 -6 -83 103 3 93 4 95 28 95 23 0 24 -2 24 -75z m120 45
c18 -44 29 -46 45 -6 13 30 20 36 45 36 17 0 30 -2 30 -5 0 -2 -13 -26 -30
-52 -21 -33 -30 -59 -30 -90 0 -41 -1 -43 -30 -43 -28 0 -30 3 -30 38 0 22
-12 59 -30 91 -17 30 -30 56 -30 58 0 1 11 3 24 3 17 0 27 -9 36 -30z m-2705
-650 c43 0 47 -7 18 -36 -21 -21 -24 -31 -18 -60 l6 -36 -29 17 c-27 16 -31
16 -61 0 l-33 -17 7 30 c5 23 0 36 -20 60 -32 38 -31 42 4 42 23 0 34 7 48 30
l18 31 14 -31 c12 -24 21 -30 46 -30z m856 30 c10 -26 16 -30 50 -30 21 0 39
-2 39 -5 0 -2 -11 -16 -25 -30 -22 -21 -25 -31 -19 -60 7 -40 5 -41 -37 -20
-28 15 -32 14 -60 -6 l-31 -22 3 36 c3 29 -3 43 -26 67 l-29 30 30 1 c16 1 35
1 41 0 7 -1 21 14 30 34 9 19 18 35 20 35 2 0 9 -13 14 -30z m931 -30 l42 0
-28 -29 c-25 -26 -28 -35 -22 -66 4 -21 4 -35 -1 -33 -4 2 -21 10 -37 18 -25
13 -31 12 -57 -3 l-30 -17 7 36 c5 30 2 40 -22 66 l-29 30 34 -4 c30 -4 36 -1
54 30 l21 36 13 -32 c12 -29 17 -32 55 -32z m-1412 -148 c0 -7 8 -12 18 -11 9
1 30 1 47 0 l29 -1 -22 -16 c-33 -23 -43 -47 -32 -83 5 -18 6 -31 2 -29 -4 2
-19 10 -35 18 -24 12 -32 11 -62 -3 l-35 -17 6 39 c5 33 3 41 -20 58 -34 27
-33 33 9 33 32 0 37 4 52 42 l17 42 12 -29 c7 -17 13 -36 14 -43z m950 22 c12
-35 14 -36 51 -31 46 6 48 -1 13 -34 -21 -20 -24 -30 -19 -58 6 -30 4 -33 -12
-26 -40 16 -54 17 -78 1 -34 -22 -38 -20 -32 17 4 26 -1 38 -26 65 l-31 32 41
0 c38 0 42 3 53 35 15 45 25 44 40 -1z m-466 -204 c28 -71 40 -80 113 -80 35
0 63 -4 63 -10 0 -5 -3 -10 -7 -10 -5 -1 -30 -21 -56 -45 l-49 -45 15 -65 c8
-36 11 -65 6 -65 -5 0 -33 13 -62 30 l-52 29 -54 -29 c-30 -17 -56 -30 -58
-30 -2 0 -1 30 2 68 l7 67 -56 45 c-30 24 -54 45 -52 47 1 1 36 8 78 14 l76
11 27 65 c15 35 31 61 35 56 4 -4 15 -28 24 -53z"/>
<path d="M3210 3570 c0 -16 5 -21 23 -18 12 2 22 10 22 18 0 8 -10 16 -22 18
-18 3 -23 -2 -23 -18z"/>
<path d="M3210 3490 c0 -20 15 -25 44 -14 28 11 18 34 -14 34 -23 0 -30 -4
-30 -20z"/>
<path d="M3827 3584 c-4 -4 -7 -29 -7 -56 l0 -48 35 0 c28 0 38 5 47 26 10 21
9 31 -3 52 -14 26 -57 41 -72 26z"/>
<path d="M5430 3570 c0 -13 7 -20 20 -20 13 0 20 7 20 20 0 13 -7 20 -20 20
-13 0 -20 -7 -20 -20z"/>
<path d="M5830 3535 c0 -48 3 -55 19 -55 48 0 68 67 29 94 -39 28 -48 21 -48
-39z"/>
<path d="M6548 3545 c-4 -17 -1 -25 8 -25 8 0 14 9 14 19 0 30 -17 34 -22 6z"/>
<path d="M2368 3600 c-2 -176 -3 -368 -3 -427 l0 -107 230 -138 c127 -77 304
-183 395 -235 153 -89 938 -559 1320 -790 381 -231 796 -476 805 -476 6 1 159
90 340 200 1013 612 2185 1315 2363 1417 l82 48 0 414 0 414 -70 0 -70 0 0
-379 0 -379 -372 -222 c-361 -216 -938 -563 -1833 -1102 -283 -171 -437 -258
-450 -255 -11 2 -243 138 -515 302 -609 366 -1578 947 -1877 1124 l-223 132 0
389 0 390 -60 0 -60 0 -2 -320z"/>
<path d="M2590 3550 l0 -369 373 -222 c374 -223 1119 -669 1472 -881 299 -180
608 -364 645 -383 25 -13 38 -14 55 -7 27 13 369 217 850 507 854 515 1633
981 1659 991 14 5 16 49 16 370 l0 364 -60 0 -60 0 0 -314 c0 -173 -3 -322 -6
-331 -4 -9 -61 -48 -128 -87 -297 -175 -540 -320 -1326 -793 -760 -457 -898
-539 -938 -559 -39 -20 -16 -31 -302 144 -102 62 -293 177 -425 255 -270 160
-465 277 -735 440 -158 96 -466 279 -872 519 l-98 58 0 334 0 334 -60 0 -60 0
0 -370z"/>
</g>
</svg>
